# xmcd
#
# Track frame offsets: 
#        150
#        11535
#        23145
#        39398
#        59345
#        71211
#        83483
#        104292
#        124727
#        141043
#        161606
#        175576
#
# Disc length: 2493 seconds
#
# Revision: 0
# Processed by: cddbd v1.5.2PL0 Copyright (c) Steve Scherf et al.
# Submitted via: ExactAudioCopyFreeDBPlugin 1.0
#
DISCID=9309bb0c
DTITLE=Elvis Presley - Uncovered
DYEAR=1900
DGENRE=
TTITLE0=You Don't Have To Say You Love Me
TTITLE1=Proud Mary
TTITLE2=Something
TTITLE3=You've Lost That Loving Feeling
TTITLE4=Sweet Caroline
TTITLE5=Words
TTITLE6=Bridge Over Troubled Water
TTITLE7=Hey Jude
TTITLE8=Make The World Go Away
TTITLE9=My Way
TTITLE10=Steamroller Blues
TTITLE11=Unchained Melody
EXTD=
EXTT0=
EXTT1=
EXTT2=
EXTT3=
EXTT4=
EXTT5=
EXTT6=
EXTT7=
EXTT8=
EXTT9=
EXTT10=
EXTT11=
PLAYORDER=
